<?xml version="1.0" standalone="no"?><svg xmlns="http://www.w3.org/2000/svg" viewBox="0 0 1440 320"><path fill="#FFC91E" fill-opacity="1" d="M0,32L40,58.7C80,85,160,139,240,154.7C320,171,400,149,480,138.7C560,128,640,128,720,144C800,160,880,192,960,176C1040,160,1120,96,1200,69.3C1280,43,1360,53,1400,58.7L1440,64L1440,320L1400,320C1360,320,1280,320,1200,320C1120,320,1040,320,960,320C880,320,800,320,720,320C640,320,560,320,480,320C400,320,320,320,240,320C160,320,80,320,40,320L0,320Z"></path></svg>